<?xml version="1.0" standalone="no"?>
<!DOCTYPE svg PUBLIC "-//W3C//DTD SVG 20010904//EN"
 "http://www.w3.org/TR/2001/REC-SVG-20010904/DTD/svg10.dtd">
<svg version="1.0" xmlns="http://www.w3.org/2000/svg"
 width="768.000000pt" height="790.000000pt" viewBox="0 0 768.000000 790.000000"
 preserveAspectRatio="xMidYMid meet">
    
    <g transform="translate(0.000000,790.000000) scale(0.100000,-0.100000)"
    fill="#ff0000" stroke="none">
    <path d="M4935 3154 c-169 -20 -280 -51 -398 -110 -140 -70 -250 -160 -382
    -314 -51 -60 -104 -159 -190 -360 -35 -80 -68 -157 -75 -172 -9 -20 -40 -38
    -129 -79 -64 -28 -149 -67 -189 -85 -41 -19 -75 -34 -77 -34 -2 0 -32 -13 -67
    -29 -35 -16 -110 -50 -168 -76 -58 -26 -130 -58 -160 -72 -98 -44 -615 -276
    -870 -390 -80 -36 -167 -75 -195 -87 -27 -13 -108 -49 -180 -81 -71 -31 -137
    -65 -146 -74 -10 -10 -23 -57 -33 -121 -9 -57 -22 -111 -30 -118 -7 -7 -208
    -82 -446 -166 l-433 -153 -110 -128 c-90 -105 -107 -130 -95 -140 7 -7 141
    -48 298 -90 157 -43 348 -95 426 -116 77 -22 153 -39 168 -39 15 0 134 34 264
    76 306 98 442 141 687 219 110 35 259 82 330 105 121 39 187 60 480 153 124
    40 135 41 585 63 173 8 402 19 508 24 515 26 590 30 632 30 52 0 25 -20 575
    430 417 341 455 373 576 472 300 247 737 603 756 615 21 14 21 15 -35 66 -50
    46 -612 492 -763 605 -50 37 -73 46 -215 81 -174 43 -352 75 -513 91 -96 9
    -318 11 -386 4z m729 -294 c30 -15 75 -63 171 -182 72 -90 196 -245 277 -346
    82 -101 155 -196 163 -212 38 -74 11 -121 -136 -240 -58 -47 -182 -147 -276
    -222 -94 -76 -175 -138 -181 -138 -9 0 -65 67 -390 470 -77 96 -182 226 -232
    287 -50 62 -89 117 -86 122 6 9 172 145 444 363 157 126 176 133 246 98z
    m-737 -612 c32 -23 199 -222 221 -265 20 -37 14 -95 -13 -136 -21 -30 -23 -38
    -11 -43 8 -3 29 2 46 11 40 21 89 13 128 -20 41 -35 220 -257 232 -289 28 -74
    3 -115 -143 -233 -67 -54 -191 -154 -275 -222 -83 -68 -155 -127 -158 -132
    -14 -23 -40 2 -165 157 -161 200 -289 358 -450 557 -66 81 -119 152 -117 156
    3 8 161 138 453 372 66 53 127 99 135 102 35 13 87 6 117 -15z"/>
    <path d="M5500 2463 c0 -5 -13 -17 -30 -28 -16 -11 -32 -26 -35 -33 -7 -18
    325 -432 346 -432 15 0 99 70 99 82 0 6 -9 20 -20 32 -26 28 -116 137 -225
    274 -67 83 -96 112 -112 112 -13 0 -23 -3 -23 -7z"/>
    <path d="M4720 1830 l-44 -39 31 -43 c17 -23 35 -44 40 -45 11 -4 84 52 96 73
    9 15 -48 94 -67 94 -6 -1 -31 -18 -56 -40z"/>
    <path d="M4982 1512 c-23 -20 -42 -41 -42 -46 0 -14 81 -106 93 -106 7 0 32
    18 55 41 30 27 41 44 35 52 -53 70 -77 97 -86 97 -7 0 -31 -17 -55 -38z"/>
    </g>
    
    <g transform="translate(0.000000,790.000000) scale(0.100000,-0.100000)"
    fill="#000000" stroke="none">
    <path d="M6573 7718 c-27 -24 -273 -232 -547 -463 -1353 -1139 -1864 -1570
    -1893 -1596 -29 -26 -33 -36 -33 -78 0 -49 1 -50 96 -145 l97 -96 756 0 c416
    0 761 4 768 8 6 4 20 34 32 67 11 33 75 220 141 415 67 195 182 533 257 750
    74 217 159 467 189 555 31 88 87 252 125 365 37 113 73 213 79 222 30 52 -6
    50 -67 -4z"/>
    <path d="M3868 5451 c-57 -49 -191 -164 -298 -256 -107 -91 -210 -180 -227
    -197 l-33 -31 0 -178 c0 -129 -3 -179 -12 -179 -6 0 -35 24 -64 53 l-52 52 5
    66 c6 73 -4 91 -34 61 -18 -18 -240 -206 -299 -252 -17 -14 -107 -89 -201
    -167 -169 -141 -170 -142 -309 -333 -76 -105 -146 -201 -154 -213 -27 -39
    -114 -160 -165 -230 -28 -38 -68 -94 -91 -125 -186 -260 -350 -480 -368 -492
    -25 -19 -214 -150 -326 -228 -47 -32 -175 -121 -285 -198 -110 -77 -273 -191
    -363 -253 -89 -62 -166 -121 -171 -130 -5 -9 -23 -68 -41 -131 -18 -63 -54
    -189 -80 -280 -27 -91 -69 -237 -94 -325 -25 -88 -54 -185 -63 -215 -23 -75
    -21 -114 9 -190 14 -36 60 -155 103 -265 43 -110 86 -222 97 -250 11 -27 23
    -61 27 -75 15 -49 38 -36 179 102 101 98 150 138 182 150 106 39 417 151 565
    202 214 76 208 72 217 129 5 26 11 68 16 94 5 36 13 50 32 60 35 18 322 153
    325 153 3 0 107 49 329 154 65 31 120 56 121 56 2 0 54 24 116 53 63 30 175
    82 249 117 74 34 206 96 292 136 86 41 185 87 220 103 180 83 439 205 487 229
    52 26 57 32 138 176 57 100 81 152 75 158 -6 6 -41 13 -79 15 -76 6 -98 17
    -62 32 34 14 317 91 334 91 8 0 27 15 42 32 196 230 394 353 648 404 106 21
    360 29 505 15 166 -16 374 -53 544 -96 121 -31 147 -41 195 -77 157 -118 713
    -559 757 -600 28 -26 55 -48 61 -48 5 0 61 41 124 90 63 50 139 110 169 133
    30 24 99 78 152 120 l96 77 38 97 c20 54 55 143 76 197 21 55 38 106 38 113 0
    11 -117 13 -625 13 -352 0 -625 4 -625 9 0 12 15 23 85 62 33 18 111 61 174
    96 63 35 116 63 118 63 2 0 20 11 41 23 20 13 71 42 112 64 224 120 468 258
    486 275 12 11 24 29 27 41 3 12 44 121 91 242 47 121 86 226 86 233 0 9 -189
    12 -911 12 -724 0 -910 3 -907 13 3 6 22 21 44 33 35 18 129 69 414 222 36 19
    79 42 95 52 17 10 75 41 130 70 206 110 280 151 291 163 6 7 32 71 58 142 26
    72 57 153 68 182 11 29 17 57 13 63 -4 7 -405 10 -1338 10 l-1331 0 -83 82
    -83 83 0 62 c0 34 -4 64 -9 68 -6 3 -56 -35 -113 -84z m-157 -1460 c-6 -10
    -26 -40 -46 -65 -19 -25 -35 -48 -35 -51 0 -3 -31 -51 -70 -107 l-70 -102 0
    -93 c0 -50 -4 -94 -9 -98 -9 -5 -440 -102 -504 -113 -22 -3 -26 -1 -21 11 3 9
    16 23 29 31 13 8 92 74 177 146 84 73 162 139 173 149 11 9 98 83 194 164 95
    81 177 147 182 147 6 0 5 -8 0 -19z"/>
    </g>
    
    <g transform="translate(0.000000,790.000000) scale(0.100000,-0.100000)"
    fill="#ffffff" stroke="none">
    <path d="M6600 7873 c-70 -48 -2504 -2104 -2556 -2159 -34 -35 -70 -64 -80
    -64 -20 -1 -72 -37 -133 -92 -20 -18 -112 -98 -206 -178 -93 -79 -183 -156
    -200 -171 -16 -14 -64 -55 -105 -91 -41 -35 -84 -81 -95 -101 -12 -22 -27 -37
    -38 -37 -28 0 -49 -17 -430 -334 l-349 -290 -146 -200 c-80 -111 -160 -221
    -176 -246 -17 -25 -36 -52 -43 -60 -19 -23 -86 -116 -266 -365 -241 -335 -258
    -357 -307 -392 -48 -35 -257 -182 -467 -327 -70 -49 -171 -119 -223 -156 -52
    -37 -156 -109 -230 -160 -185 -128 -198 -138 -214 -163 -12 -17 -161 -516
    -196 -652 -4 -16 -24 -86 -44 -155 -20 -69 -43 -150 -52 -180 -8 -30 -20 -65
    -25 -78 -5 -13 -9 -30 -9 -38 0 -13 79 -234 115 -319 30 -71 145 -368 166
    -428 7 -20 25 -48 39 -61 30 -28 179 -116 197 -116 7 0 77 -18 156 -39 176
    -49 287 -79 352 -96 28 -7 75 -20 105 -29 106 -29 245 -67 280 -76 41 -11 49
    -9 205 41 222 72 269 87 450 144 99 32 212 68 250 80 39 13 151 49 250 80 99
    31 234 74 300 95 66 22 158 51 205 66 47 14 125 39 174 55 75 24 116 30 265
    38 368 21 593 32 791 41 498 22 667 31 702 41 24 6 91 53 187 132 82 67 190
    156 241 197 99 80 219 179 260 214 14 11 59 48 100 81 41 33 84 67 95 77 11 9
    52 43 91 75 39 32 113 92 165 135 52 42 189 153 304 248 116 94 228 186 249
    203 22 18 44 37 50 42 12 11 98 79 231 184 44 35 96 76 115 91 19 15 82 65
    140 111 58 46 135 107 173 136 37 30 74 64 82 77 28 42 175 438 175 470 0 17
    -7 42 -16 55 -35 49 -51 51 -526 51 -279 0 -438 4 -432 9 8 9 411 234 614 344
    41 22 81 45 89 51 14 11 59 102 85 173 7 21 45 121 85 223 39 102 71 195 71
    208 0 38 -27 78 -64 96 -30 14 -108 16 -750 16 -402 0 -716 4 -716 9 0 5 28
    22 63 39 59 30 145 75 302 161 104 57 186 101 226 122 60 32 85 69 129 189 23
    63 57 156 76 207 39 104 41 124 18 163 -36 59 -41 60 -534 60 -353 0 -450 3
    -450 13 0 6 7 30 15 52 63 179 128 365 135 390 5 17 41 122 80 235 39 113 93
    270 120 350 27 80 81 237 120 350 39 113 93 270 120 350 27 80 89 264 139 410
    50 146 91 276 91 290 0 33 -24 66 -60 85 -38 20 -70 19 -100 -2z m50 -123 c0
    -6 -5 -18 -10 -28 -6 -9 -42 -109 -79 -222 -38 -113 -94 -277 -125 -365 -30
    -88 -115 -338 -189 -555 -75 -217 -190 -555 -257 -750 -66 -195 -130 -382
    -141 -415 -12 -33 -26 -63 -32 -67 -7 -4 -352 -8 -768 -8 l-756 0 -97 96 c-95
    95 -96 96 -96 145 0 42 4 52 33 78 29 26 540 457 1893 1596 274 231 520 439
    547 463 46 40 77 53 77 32z m-2660 -2283 l0 -62 83 -83 83 -82 1331 0 c933 0
    1334 -3 1338 -10 4 -6 -2 -34 -13 -63 -11 -29 -42 -110 -68 -182 -26 -71 -52
    -135 -58 -142 -11 -12 -85 -53 -291 -163 -55 -29 -113 -60 -130 -70 -16 -10
    -59 -33 -95 -52 -285 -153 -379 -204 -414 -222 -22 -12 -41 -27 -44 -33 -3
    -10 183 -13 907 -13 722 0 911 -3 911 -12 0 -7 -39 -112 -86 -233 -47 -121
    -88 -230 -91 -242 -3 -12 -15 -30 -27 -41 -18 -17 -262 -155 -486 -275 -41
    -22 -92 -51 -112 -64 -21 -12 -39 -23 -41 -23 -2 0 -55 -28 -118 -63 -63 -35
    -141 -78 -174 -96 -70 -39 -85 -50 -85 -62 0 -5 273 -9 625 -9 508 0 625 -2
    625 -13 0 -7 -17 -58 -38 -113 -21 -54 -56 -143 -76 -197 l-38 -97 -96 -77
    c-142 -112 -184 -146 -347 -273 -128 -99 -572 -459 -874 -708 -121 -99 -159
    -131 -576 -472 -550 -450 -523 -430 -575 -430 -42 0 -117 -4 -632 -30 -106 -5
    -335 -16 -508 -24 -450 -22 -461 -23 -585 -63 -60 -19 -165 -52 -232 -74 -68
    -21 -180 -57 -250 -80 -71 -22 -218 -69 -328 -104 -245 -78 -381 -121 -687
    -219 -130 -42 -249 -76 -264 -76 -15 0 -91 17 -168 39 -78 21 -269 73 -426
    116 -157 42 -291 83 -298 90 -12 10 5 35 95 140 l110 128 433 153 c238 84 439
    159 446 166 8 7 21 61 30 118 10 64 23 111 33 121 9 9 75 43 146 74 72 32 153
    68 180 81 28 12 115 51 195 87 255 114 772 346 870 390 30 14 102 46 160 72
    58 26 133 60 168 76 35 16 65 29 67 29 2 0 36 15 77 34 40 18 126 57 190 86
    l117 52 40 92 c22 50 60 139 86 198 26 59 62 133 81 164 36 59 40 74 24 74
    -13 0 -300 -79 -329 -91 -36 -15 -14 -26 62 -32 38 -2 73 -9 79 -15 6 -6 -18
    -58 -75 -158 -81 -144 -86 -150 -138 -176 -48 -24 -307 -146 -487 -229 -35
    -16 -134 -62 -220 -103 -86 -40 -218 -102 -292 -136 -74 -35 -186 -87 -249
    -117 -62 -29 -114 -53 -116 -53 -1 0 -56 -25 -121 -56 -222 -105 -326 -154
    -329 -154 -3 0 -290 -135 -325 -153 -19 -10 -27 -24 -32 -60 -5 -26 -11 -68
    -16 -94 -9 -57 -3 -53 -217 -129 -148 -51 -459 -163 -565 -202 -32 -12 -81
    -52 -182 -150 -141 -138 -164 -151 -179 -102 -4 14 -16 48 -27 75 -11 28 -54
    140 -97 250 -43 110 -89 229 -103 265 -30 76 -32 115 -9 190 9 30 38 127 63
    215 25 88 67 234 94 325 26 91 62 217 80 280 18 63 36 122 41 131 5 9 82 68
    171 130 90 62 253 176 363 253 110 77 238 166 285 198 112 78 301 209 326 228
    18 12 182 232 368 492 23 31 63 87 91 125 51 70 138 191 165 230 8 12 78 108
    154 213 139 191 140 192 309 333 94 78 184 153 201 167 59 46 281 234 299 252
    30 30 40 12 34 -61 l-5 -66 52 -52 c29 -29 58 -53 64 -53 9 0 12 50 12 179 l0
    178 33 31 c17 17 120 106 227 197 107 92 241 207 298 256 57 49 107 87 113 84
    5 -4 9 -34 9 -68z"/>
    <path d="M3529 3863 c-96 -81 -183 -155 -194 -164 -11 -10 -89 -76 -173 -149
    -85 -72 -164 -138 -177 -146 -13 -8 -26 -22 -29 -31 -5 -12 -1 -14 21 -11 64
    11 495 108 504 113 5 4 9 48 9 98 l0 93 70 102 c39 56 70 104 70 107 0 3 16
    26 35 51 44 57 59 84 46 84 -5 0 -87 -66 -182 -147z"/>
    <path d="M5573 2873 c-11 -2 -81 -52 -155 -111 -272 -218 -438 -354 -444 -363
    -3 -5 36 -60 86 -122 50 -61 155 -191 232 -287 325 -403 381 -470 390 -470 6
    0 87 62 181 138 94 75 218 175 276 222 147 119 174 166 136 240 -8 16 -81 111
    -163 212 -81 101 -205 256 -277 346 -150 187 -182 211 -262 195z m62 -515
    c109 -137 199 -246 225 -274 11 -12 20 -26 20 -32 0 -12 -84 -82 -99 -82 -21
    0 -353 414 -346 432 3 7 19 22 35 33 17 11 30 23 30 28 0 4 10 7 23 7 16 0 45
    -29 112 -112z"/>
    <path d="M4810 2263 c-8 -3 -69 -49 -135 -102 -292 -234 -450 -364 -453 -372
    -2 -4 51 -75 117 -156 161 -199 289 -357 450 -557 125 -155 151 -180 165 -157
    3 5 75 64 158 132 84 68 208 168 275 222 146 118 171 159 143 233 -12 32 -191
    254 -232 289 -39 33 -88 41 -128 20 -17 -9 -38 -14 -46 -11 -12 5 -10 13 11
    43 27 41 33 99 13 136 -22 43 -189 242 -221 265 -30 21 -82 28 -117 15z m9
    -433 c21 -26 29 -45 24 -54 -12 -21 -85 -77 -96 -73 -5 1 -23 22 -40 45 l-31
    43 44 39 c25 22 50 39 56 40 6 0 25 -18 43 -40z m262 -322 c18 -24 37 -48 42
    -55 6 -8 -5 -25 -35 -52 -23 -23 -48 -41 -55 -41 -12 0 -93 92 -93 106 0 12
    82 83 97 84 6 0 26 -19 44 -42z"/>
    </g>
    
</svg>
